# xmcd
#
# Track frame offsets: 
#        150
#        14075
#        25952
#        39580
#        50982
#        62330
#        75067
#        87502
#        98900
#        111682
#        123215
#        137197
#        150600
#        165857
#        179955
#        191567
#        203335
#        215045
#        233730
#        263267
#        276892
#        289117
#        302287
#
# Disc length: 4211 seconds
#
# Revision: 5
# Processed by: cddbd v1.5.2PL0 Copyright (c) Steve Scherf et al.
# Submitted via: ExactAudioCopyFreeDBPlugin 1.0
#
DISCID=3e107117
DTITLE=The Four Tops - Four Tops:  Fourever [box set]
DYEAR=2001
DGENRE=Soul
TTITLE0=Reach Out I'll Be There
TTITLE1=Standing in the Shadows of Love
TTITLE2=Bernadette
TTITLE3=7-Rooms of Gloom (alternate mix)
TTITLE4=I'll Turn to Stone (live) (original vocal)
TTITLE5=You Keep Running Away
TTITLE6=Walk Away Renee
TTITLE7=Your Love is Wonderful
TTITLE8=If I Were Carpenter
TTITLE9=Just Another Lonely Night
TTITLE10=Oh I've Been Blessed
TTITLE11=Yesterday's Dream
TTITLE12=Can't Seem to Get You Out of My Mind
TTITLE13=I'm in a Different World
TTITLE14=What is a Man
TTITLE15=So Far
TTITLE16=Don't Let Him Take Your Love From Me (single version)
TTITLE17=Do What You Gotta Do
TTITLE18=MacArthur Park
TTITLE19=I'll Pay Double
TTITLE20=Nothing
TTITLE21=Barbara's Boy
TTITLE22=Stranded on the Road of Love
EXTD=
EXTT0=
EXTT1=
EXTT2=
EXTT3=
EXTT4=
EXTT5=
EXTT6=
EXTT7=
EXTT8=
EXTT9=
EXTT10=
EXTT11=
EXTT12=
EXTT13=
EXTT14=
EXTT15=
EXTT16=
EXTT17=
EXTT18=
EXTT19=
EXTT20=
EXTT21=
EXTT22=
PLAYORDER=
